<?xml version="1.0" standalone="no"?>
<!DOCTYPE svg PUBLIC "-//W3C//DTD SVG 20010904//EN"
 "http://www.w3.org/TR/2001/REC-SVG-20010904/DTD/svg10.dtd">
<svg version="1.0" xmlns="http://www.w3.org/2000/svg"
 width="1032.000000pt" height="1032.000000pt" viewBox="0 0 1032.000000 1032.000000"
 preserveAspectRatio="xMidYMid meet">
<metadata>
Created by potrace 1.14, written by Peter Selinger 2001-2017
</metadata>
<g transform="translate(0.000000,1032.000000) scale(0.100000,-0.100000)"
fill="#000000" stroke="none">
<path d="M0 5160 l0 -3420 3417 2 3418 3 0 680 c0 374 -1 687 -3 696 -3 12
-14 15 -45 14 -23 -2 -45 -3 -48 -4 -3 0 -5 -290 -5 -643 l0 -643 -3317 -2
-3317 -2 0 3319 0 3319 3317 -2 3317 -2 0 -620 1 -620 50 1 49 0 1 672 0 672
-3417 0 -3418 0 0 -3420z"/>
<path d="M2500 7288 c-52 -11 -99 -20 -105 -22 -5 -1 -30 -9 -55 -16 -25 -7
-49 -14 -55 -16 -31 -6 -214 -84 -300 -127 -121 -61 -288 -156 -373 -214 -35
-24 -65 -43 -68 -43 -3 0 -105 -72 -139 -98 -5 -4 -39 -30 -75 -57 -36 -27
-70 -54 -76 -60 -6 -5 -33 -28 -60 -50 -154 -128 -356 -335 -449 -460 -17 -22
-36 -46 -43 -54 -31 -32 -119 -172 -167 -265 -87 -169 -126 -315 -120 -456 2
-73 8 -118 15 -127 2 -2 3 -7 4 -11 0 -5 14 -29 29 -53 31 -49 79 -85 141
-103 116 -35 357 15 487 101 60 39 78 108 37 137 -34 24 -83 19 -203 -20 -204
-66 -302 -50 -320 55 -7 43 2 127 18 156 6 11 9 20 8 20 -1 0 2 13 8 28 6 16
11 32 11 37 0 5 14 32 30 60 17 28 30 53 30 56 0 11 131 203 184 268 115 142
243 277 383 402 42 38 84 76 93 84 37 34 212 172 310 244 58 42 110 80 115 84
17 13 188 118 251 154 106 62 299 143 389 164 273 65 454 12 514 -151 19 -49
22 -77 20 -160 -1 -55 -6 -116 -10 -135 -4 -19 -10 -46 -13 -60 -34 -174 -169
-494 -310 -740 -14 -25 -29 -52 -33 -60 -4 -8 -49 -85 -101 -170 -53 -85 -102
-167 -111 -182 -9 -15 -56 -93 -106 -175 -120 -199 -126 -209 -199 -356 -88
-176 -148 -332 -172 -447 -23 -115 -11 -242 29 -302 51 -74 150 -116 273 -113
60 1 93 5 175 20 49 9 179 62 258 105 98 53 290 180 311 205 7 8 17 15 23 15
5 0 17 8 26 18 9 10 32 29 51 42 19 13 37 27 40 30 3 3 32 28 65 55 32 28 66
57 75 65 9 8 45 40 81 70 35 30 230 220 434 422 203 201 371 365 372 364 1 -1
-5 -24 -13 -51 -25 -81 -114 -432 -120 -473 -3 -20 -7 -45 -10 -54 -19 -65
-27 -145 -27 -283 -1 -151 6 -192 51 -285 39 -79 100 -131 187 -160 62 -21
190 -20 265 2 56 15 165 63 180 78 3 3 28 21 55 40 72 50 99 73 205 180 95 94
137 141 175 194 11 16 25 33 30 40 30 33 137 195 187 284 49 86 168 331 168
346 0 9 5 16 12 16 6 0 9 3 6 6 -4 3 5 30 18 60 31 71 99 276 121 365 l16 68
31 -6 c17 -4 53 -7 79 -7 40 -1 52 3 68 23 10 13 19 32 19 43 0 26 -50 75 -86
84 -57 15 -65 32 -69 151 -4 154 -57 299 -122 334 -51 27 -116 6 -153 -49 -22
-33 -25 -48 -25 -127 0 -62 6 -103 18 -132 9 -24 14 -43 11 -43 -4 0 -2 -6 3
-12 15 -19 35 -104 36 -153 5 -173 -127 -540 -309 -860 -18 -33 -41 -74 -49
-91 -18 -36 -162 -227 -221 -294 -102 -115 -253 -258 -319 -301 -100 -65 -118
-72 -191 -72 -78 0 -124 55 -147 181 -26 138 -14 289 48 573 13 59 115 341
165 452 55 123 192 398 210 422 25 32 80 157 80 181 -1 72 -82 95 -180 52 -58
-26 -96 -64 -235 -237 -76 -95 -77 -97 -108 -132 -12 -14 -44 -52 -72 -84 -27
-32 -70 -81 -95 -108 -25 -28 -54 -61 -65 -73 -158 -177 -457 -481 -609 -619
-49 -44 -94 -85 -100 -90 -10 -9 -133 -114 -161 -137 -5 -5 -21 -18 -35 -29
-14 -12 -50 -40 -80 -63 -30 -22 -59 -47 -63 -54 -5 -7 -12 -10 -18 -7 -5 4
-9 2 -9 -2 0 -5 -21 -24 -47 -43 -111 -78 -230 -157 -258 -172 -142 -72 -179
-88 -240 -100 -38 -8 -79 -13 -91 -10 -52 10 -85 72 -79 148 6 74 31 180 47
198 4 6 8 16 8 24 0 28 115 244 230 432 77 127 246 407 250 415 11 23 124 212
141 237 11 15 19 30 19 33 0 3 29 56 63 118 35 62 66 117 68 122 2 6 33 66 68
135 36 69 66 131 67 138 1 7 9 23 16 35 27 41 89 208 115 305 29 110 39 289
22 382 -22 117 -105 238 -201 293 -48 28 -142 61 -203 73 -83 15 -277 11 -375
-8z"/>
<path d="M7189 5829 c-131 -34 -183 -225 -81 -297 35 -25 103 -34 145 -20 44
16 97 51 97 65 0 6 8 19 17 28 24 25 29 114 9 157 -28 59 -109 88 -187 67z"/>
<path d="M8365 5724 c-42 -12 -137 -57 -163 -77 -33 -26 -149 -144 -170 -172
-12 -16 -38 -51 -57 -77 -19 -26 -35 -52 -35 -57 0 -6 -4 -11 -10 -11 -5 0
-10 -4 -10 -9 0 -5 -22 -45 -49 -88 -27 -43 -79 -130 -116 -193 -53 -90 -148
-240 -172 -269 -2 -3 -17 6 -34 18 -62 46 -126 36 -165 -25 -19 -28 -27 -150
-14 -208 7 -32 4 -37 -59 -98 -79 -77 -154 -138 -170 -138 -6 0 -11 -3 -11 -7
0 -8 -78 -44 -110 -51 -48 -11 -110 -5 -129 12 -23 20 -40 88 -35 140 13 176
69 325 209 561 63 105 70 144 36 198 -49 80 -141 106 -194 56 -29 -29 -93
-127 -124 -189 -36 -76 -70 -154 -78 -180 -4 -14 -11 -29 -15 -35 -4 -5 -15
-33 -24 -62 -42 -126 -372 -368 -576 -420 -118 -30 -199 -15 -237 44 -20 31
-27 185 -11 238 5 17 10 36 12 43 3 15 32 37 65 47 14 4 29 11 35 16 6 5 47
33 92 63 170 114 327 275 390 402 47 93 52 152 19 219 -36 72 -65 90 -145 89
-95 -1 -121 -9 -253 -81 -34 -18 -170 -150 -219 -213 -121 -155 -222 -357
-246 -495 -4 -22 -7 -92 -7 -155 0 -96 4 -126 24 -180 57 -154 169 -224 349
-215 43 2 90 9 105 14 15 6 27 9 27 6 0 -2 16 3 35 11 19 8 37 14 40 14 3 0
30 11 61 25 31 14 60 25 65 25 5 0 9 5 9 10 0 6 4 10 10 10 15 0 108 58 193
122 43 32 80 58 81 58 2 0 3 -31 4 -69 2 -199 106 -310 292 -312 19 -1 40 0
45 1 6 1 14 2 18 1 10 -2 92 23 132 40 17 7 33 12 38 11 4 -1 7 2 7 8 0 5 6
10 13 10 7 0 22 7 32 15 11 8 45 33 74 55 30 22 84 67 118 100 35 33 68 60 72
60 5 0 21 -19 36 -42 83 -126 266 -246 421 -278 75 -15 220 -8 279 14 118 42
219 130 266 229 15 33 26 64 23 68 -2 4 10 10 28 14 18 4 73 20 122 37 48 16
89 28 91 26 1 -2 15 -28 31 -58 32 -60 146 -181 209 -221 75 -48 100 -63 105
-65 3 0 19 -6 35 -13 57 -24 160 -43 228 -42 202 2 383 122 439 291 8 25 21
45 29 46 8 0 16 2 19 3 3 1 15 4 27 7 101 18 254 93 344 168 154 127 204 258
108 281 -22 6 -36 -4 -100 -70 -74 -77 -178 -154 -240 -179 -86 -34 -76 -31
-126 -41 -32 -7 -33 -6 -34 26 -1 50 -7 86 -30 169 -12 41 -22 80 -23 85 -2
11 -22 66 -37 100 -59 138 -103 268 -105 312 -5 117 95 213 238 228 151 16
152 16 168 55 21 51 -12 111 -88 158 -56 34 -98 46 -162 43 -125 -4 -235 -70
-385 -232 -28 -30 -201 -299 -295 -459 -98 -168 -106 -180 -154 -236 l-28 -34
-32 23 c-42 30 -107 30 -137 1 -23 -24 -50 -122 -43 -159 3 -19 -2 -28 -23
-39 -38 -19 -143 -49 -150 -42 -3 3 -7 20 -9 38 -5 47 -24 137 -35 174 -5 17
-11 40 -14 50 -2 10 -19 60 -38 109 -19 50 -51 134 -71 188 -52 137 -53 181
-4 252 41 60 117 100 211 111 142 16 167 27 167 73 0 51 -26 94 -77 128 -80
52 -171 70 -248 47z m-2101 -457 c-2 -61 -47 -136 -141 -232 -90 -92 -193
-170 -193 -146 0 6 11 29 25 51 14 22 25 42 25 45 0 3 8 18 19 33 10 15 42 65
72 112 68 106 141 182 172 178 18 -2 22 -9 21 -41z m1820 -197 c15 -58 28
-113 31 -124 2 -10 12 -44 21 -75 16 -57 21 -77 30 -121 3 -14 7 -33 10 -42 9
-31 14 -63 20 -122 l6 -59 -64 7 c-35 4 -94 14 -132 23 -37 8 -74 16 -82 17
-7 1 -17 5 -20 9 -4 4 -14 7 -23 7 -19 0 -200 69 -205 79 -3 4 11 27 30 51 19
25 44 58 57 74 42 55 116 161 199 287 60 91 85 122 89 110 4 -9 19 -63 33
-121z m1267 113 c0 -10 2 -25 4 -33 2 -8 7 -28 10 -44 3 -16 8 -33 11 -38 4
-6 16 -48 50 -178 45 -174 67 -276 67 -320 0 -36 -4 -51 -11 -46 -4 3 -26 7
-48 10 -21 2 -50 7 -64 10 -14 3 -41 8 -60 10 -63 9 -257 71 -274 87 -6 5 -18
9 -28 9 -36 0 -29 30 24 107 29 43 63 89 76 103 12 14 25 33 28 43 3 9 10 17
15 17 5 0 9 6 9 14 0 8 3 16 8 18 4 2 43 58 87 125 44 68 83 123 88 123 4 0 7
-8 8 -17z m-1699 -722 c77 -35 137 -56 203 -70 109 -23 143 -28 238 -32 31 -1
57 -5 57 -8 -1 -13 -49 -60 -76 -74 -53 -27 -113 -34 -210 -23 -88 9 -210 103
-267 204 -10 18 -16 32 -13 32 3 0 33 -13 68 -29z m1285 3 c59 -28 190 -71
238 -79 17 -3 41 -7 55 -10 34 -6 137 -15 182 -17 l37 -1 -21 -30 c-12 -16
-30 -32 -40 -35 -10 -2 -18 -8 -18 -12 0 -21 -132 -38 -208 -26 -57 9 -136 51
-183 97 -46 45 -116 139 -103 139 4 0 32 -12 61 -26z"/>
</g>
</svg>
