<svg id="Layer_2" xmlns="http://www.w3.org/2000/svg" viewBox="0 0 479.05 501.96"><defs><style>.cls-1{fill:#fff;}</style></defs><path class="cls-1" d="M403.44,153.47c-19.74,19.69-39.48,39.37-59.22,59.06-31.31,31.23-62.63,62.46-93.94,93.69-7.2,7.18-14.4,14.36-21.6,21.54h21.21c-19.69-19.74-39.37-39.48-59.06-59.22l-93.69-93.94c-7.18-7.2-14.36-14.4-21.54-21.6-5.72-5.74-15.49-5.72-21.21,0s-5.74,15.46,0,21.21c19.69,19.74,39.37,39.48,59.06,59.22,31.23,31.31,62.46,62.63,93.69,93.94,7.18,7.2,14.36,14.4,21.54,21.6,5.73,5.74,15.47,5.73,21.21,0,19.74-19.69,39.48-39.37,59.22-59.06,31.31-31.23,62.63-62.46,93.94-93.69,7.2-7.18,14.4-14.36,21.6-21.54,5.74-5.72,5.72-15.49,0-21.21s-15.46-5.74-21.21,0h0Z"/></svg>