<svg id="Layer_1" xmlns="http://www.w3.org/2000/svg" viewBox="0 0 512 432.98"><defs><style>.cls-1{fill:#ae817e;}</style></defs><path class="cls-1" d="M511.97,323.74v45.96c.46,18.48-5.08,34.58-18.81,47.42-10.97,9.9-23.68,15.75-38.59,15.79-40.41,.12-80.82,.05-121.23,.06-11.08,0-21.51-2.47-31.08-8.2-3.99-3.62-7.99-7.23-11.98-10.85-3.65-5.69-7.31-11.37-10.96-17.06-.73-2.94-1.46-5.88-2.19-8.82-.38-.94-.76-1.87-1.14-2.81-.15-3.15-.3-6.3-.45-9.45,.32-.5,.3-.98-.07-1.44,0-2.09,0-4.17,0-6.26,.64-5.56,.64-11.12,0-16.69,0-1.55,0-3.11,0-4.66,.55-13.77,.68-27.54,0-41.32,0-1.55,0-3.1,0-4.65,.55-13.77,.68-27.54,0-41.31,0-1.55,0-3.1,0-4.65,.55-13.77,.68-27.54,0-41.31,0-1.55,0-3.1,0-4.65,.57-14.52,.66-29.04-.01-43.56,0-.79,0-1.58,.01-2.37,.05-3.6,.1-7.2,.15-10.8,.02-1.01,.04-2.01,.06-3.02,.1-3.07,.2-6.15,.29-9.22,2.66-15.66,6.87-30.89,12.55-45.72,0,0-.04,.05-.04,.05,.33-.58,.65-1.16,.98-1.75,.15-.49,.29-.97,.44-1.46,.36-.54,.73-1.07,1.09-1.61,.13-.52,.27-1.05,.4-1.57,.32-.49,.65-.97,.97-1.46,.2-.5,.4-.99,.59-1.49,.36-.54,.73-1.07,1.09-1.61,.15-.49,.29-.97,.44-1.46,.38-.54,.77-1.08,1.15-1.61,1.79-3.03,3.57-6.05,5.36-9.08,.36-.59,.72-1.18,1.07-1.76,3.49-4.61,6.98-9.22,10.47-13.83,.76-.93,1.52-1.86,2.29-2.8,.38-.49,.76-.97,1.14-1.46,3.61-3.63,7.23-7.26,10.84-10.89,5-3.89,10-7.77,15-11.65,1.61-1.12,3.22-2.23,4.82-3.35,7.61-4.18,15.22-8.36,22.83-12.54,14.86-5.76,30.15-9.95,45.87-12.55,13.76-.09,27.51-.19,41.27-.28,1,.18,2,.35,3,.53,9.25,5.16,13.45,12.75,12.75,23.6-.65,10.11-.59,20.31-.02,30.43,.66,11.58-4.01,19.35-14.47,23.89-6.52,.13-13.03,.26-19.55,.39-2.56,.02-5.12,.05-7.68,.07-3.15-.31-6.28-.39-9.24,1.06-1,.12-2,.25-3,.37-29.62,3.44-58.19,32.06-62.5,62.59-.13,1.51-.26,3.02-.39,4.53-2.14,6.14-.94,12.49-1.17,18.74-.39,11.03,4.61,19.31,13.33,25.7,7.56,5.54,16.11,5.01,24.72,4.47h45.91c7.62,.15,15.24,.31,22.85,.46,7.98,2.04,15.85,4.38,23.05,8.54,1.04,.63,2.08,1.27,3.12,1.9l1.42,1.21c.23,.48,.6,.65,1.11,.51,5.58,5.75,10.88,11.73,15.36,18.4,.7,1.47,1.41,2.94,2.11,4.41,2.37,7.49,4.28,15.07,4.66,22.96v68.96Z"/><path class="cls-1" d="M0,165.56c0-.93,0-1.87,0-2.8,.05-3.55,.1-7.09,.14-10.64,.02-1.01,.04-2.02,.06-3.02,.1-3.07,.2-6.15,.29-9.22,2.66-15.66,6.87-30.89,12.55-45.72,0,0-.04,.05-.04,.05,.33-.58,.65-1.16,.98-1.75,.15-.49,.29-.97,.44-1.46,.36-.54,.73-1.07,1.09-1.61,.13-.52,.27-1.05,.4-1.57,.32-.49,.65-.97,.97-1.46,.2-.5,.4-.99,.59-1.49,.36-.54,.73-1.07,1.09-1.61,.15-.49,.29-.97,.44-1.46,.38-.54,.77-1.08,1.15-1.61,1.79-3.03,3.57-6.05,5.36-9.08,.36-.59,.71-1.17,1.07-1.76,3.49-4.61,6.98-9.22,10.47-13.83,.76-.93,1.52-1.86,2.29-2.8,.38-.49,.76-.97,1.14-1.46,3.61-3.63,7.23-7.26,10.84-10.89,5-3.89,10-7.77,15-11.66,1.61-1.12,3.22-2.23,4.82-3.35,7.61-4.18,15.22-8.36,22.83-12.54C108.85,7.07,124.14,2.89,139.86,.28c13.76-.09,27.52-.19,41.29-.28,.99,.18,1.99,.35,2.98,.53,9.25,5.16,13.44,12.75,12.74,23.61-.65,10.11-.6,20.31-.02,30.43,.66,11.58-4.02,19.34-14.47,23.88-6.51,.13-13.03,.26-19.54,.39-17.51-1.14-33.85,2.55-48.37,12.59-23.88,16.52-34.98,39.34-36.05,68.57-.8,21.97,12.54,38.7,36.54,36.93,17.48-1.29,35.16,.26,52.72-.4,17.01-.63,32.59,2.82,46.7,12.47,5.59,5.75,10.89,11.74,15.38,18.41l2.1,4.41c2.37,7.49,4.28,15.07,4.66,22.96v114.93c.46,18.48-5.08,34.57-18.8,47.41-10.97,9.9-23.67,15.76-38.59,15.8-40.41,.11-80.82,.05-121.23,.06-11.08,0-21.51-2.47-31.08-8.2-4-3.62-7.99-7.24-11.99-10.86-3.65-5.69-7.31-11.37-10.96-17.06l-2.18-8.81c-.38-.94-.76-1.87-1.14-2.81-.15-3.15-.3-6.3-.45-9.45-.02-.48-.05-.97-.07-1.45,0-2.08,0-4.16,0-6.25,.64-5.57,.64-11.14,0-16.71,0-1.55,0-3.1,0-4.65,.55-13.8,.68-27.6,0-41.41,0-1.52,0-3.04,0-4.56,.55-13.8,.68-27.6,0-41.41,0-1.52,0-3.04,0-4.56,.55-13.8,.68-27.6,0-41.41,0-1.52,0-3.04,0-4.56,0-14.43,0-28.86,0-43.29Z"/></svg>