<svg id="Layer_2" xmlns="http://www.w3.org/2000/svg" viewBox="0 0 479.05 501.96" fill="#634846"><path class="cls-1" d="M396.82,413.71c0,4.97-2.49,8.98-7.45,12.03-4.97,3.06-9.94,4.59-14.9,4.59-24.45,0-71.43-55.2-140.96-165.6-1.91-.38-3.53,.2-4.87,1.72-1.34,1.53-8.31,13.56-20.91,36.1-14.14,24.07-28.28,48.33-42.4,72.77-15.28,27.89-26.17,53.49-32.66,76.78-6.5,4.96-12.61,7.45-18.34,7.45-8.02,0-18.72-7.65-32.09-22.92,5.73-5.35,14.13-13.56,25.21-24.64,5.73-6.11,25.02-36.29,57.87-90.53,32.85-54.24,49.28-82.7,49.28-85.38,0-5.73-16.81-32.75-50.43-81.08-33.62-48.32-50.42-77.07-50.42-86.24,0-12.61,6.68-18.91,20.06-18.91,6.11,0,16.23,3.25,30.37,9.74l1.72,3.44c-.39,19.48,7.82,44.32,24.64,74.49,14.51,22.92,29.03,45.65,43.55,68.19,15.66-23.68,38-60.16,67.04-109.44,3.81-9.54,10.69-23.11,20.63-40.68,6.49-8.78,13.37-13.18,20.63-13.18,4.2,0,7.74,1.92,10.6,5.73,2.86,3.82,4.49,7.83,4.87,12.03l-108.3,174.19c11.84,23.31,32.09,55.78,60.74,97.41,34.76,50.81,57.3,76.21,67.61,76.21,3.44,0,6.11-1.72,8.02-5.16h6.3c3.05,3.82,4.58,7.45,4.58,10.89Z"/></svg>