<svg id="Layer_1" xmlns="http://www.w3.org/2000/svg" viewBox="0 0 512 366.59" width='20px'><defs><style>.cls-1{fill:#fff;}</style></defs><path class="cls-1" d="M11.47,10.1C17.6,4.43,24.24,1.32,31.89,.43c2.37-.28,4.78-.38,7.16-.38C183.76,.03,328.46,.04,473.16,0c8.12,0,15.76,1.45,22.62,5.97,1.71,1.12,3.26,2.49,5.19,3.98-81.72,70.1-163.12,139.92-244.83,210.02C174.59,150.02,93.22,80.22,11.47,10.1Z"/><path class="cls-1" d="M256.17,256.39c21.24-18.59,42.16-36.89,63.41-55.48,60.44,51.87,120.66,103.55,181.2,155.5-7.59,7.26-16.55,10.14-26.55,10.15-44.73,.04-89.46,.03-134.18,.03-100.38,0-200.75,0-301.13,0-10.21,0-19.44-2.63-27.45-10.12,2.49-2.16,4.8-4.18,7.13-6.18,56.87-48.79,113.77-97.54,170.54-146.44,3.03-2.61,4.64-2.2,7.34,.19,18.24,16.17,36.62,32.19,54.95,48.25,1.46,1.28,2.93,2.54,4.74,4.1Z"/><path class="cls-1" d="M0,336.59V32.25c59.24,51.53,117.84,102.49,176.92,153.87C118.04,236.2,59.35,286.11,0,336.59Z"/><path class="cls-1" d="M335.39,186.14c58.98-51.34,117.52-102.29,176.61-153.73V336.29c-58.94-50.12-117.53-99.92-176.61-150.16Z"/></svg>