<?xml version="1.0" encoding="UTF-8"?><svg id="Layer_4" xmlns="http://www.w3.org/2000/svg" viewBox="0 0 512 511.9"><defs><style>.cls-1{fill:#fff;}</style></defs><path class="cls-1" d="M510.84,130.26c-2.43-20.03-8.7-38.8-19.01-56.11-19.92-33.45-48.48-56.11-85.72-67.66-13.47-4.18-27.3-6.22-41.41-6.22-72.61,0-145.21-.2-217.82,.08-34.72,.13-65.61,11.78-92.35,33.88C28.75,55.52,11.97,82.6,4.21,115.19c-2.44,10.23-3.79,20.62-3.8,31.14-.03,73.07-.2,146.14,.07,219.21,.13,33.79,11.37,63.94,32.38,90.35,17.25,21.68,39,37.3,64.99,46.94,13.15,4.88,26.73,7.82,40.74,8.71,.64,.04,1.27,.24,1.91,.36h231.41c3.31-.39,6.61-.78,9.92-1.16,14.14-1.63,27.74-5.31,40.7-11.13,37.49-16.83,64-44.33,79.37-82.45,5.61-13.93,8.79-28.46,9.74-43.47,.04-.64,.24-1.27,.37-1.91V140.36c-.39-3.37-.75-6.74-1.16-10.1Zm-38.23,232.26c-.05,32.12-11.75,59.43-35.32,81.35-15.8,14.69-34.54,23.76-55.88,27.08-6.58,1.02-13.3,1.52-19.96,1.53-70.83,.11-141.67,.09-212.5,.06-44.95-.02-84.69-26.91-101.46-68.58-5.1-12.66-7.71-25.85-7.73-39.46-.08-56.28-.04-112.55-.04-168.83,0-15.35-.04-30.7,0-46.04,.09-27.54,8.79-51.99,26.94-72.78,16.46-18.85,37.1-30.75,61.76-35.19,7.31-1.32,14.84-1.92,22.27-1.96,35.15-.2,70.31-.09,105.46-.09v.02c36.27,0,72.54-.29,108.81,.07,52.03,.52,94.33,37,104.97,84.96,1.82,8.23,2.69,16.55,2.69,24.96,.01,70.97,.09,141.94-.03,212.91Z"/><path class="cls-1" d="M433.28,98.78c-.03,10.88-8.9,19.58-19.92,19.53-10.76-.04-19.45-8.91-19.42-19.82,.03-10.91,8.84-19.55,19.91-19.51,10.79,.04,19.46,8.87,19.43,19.8Z"/><path class="cls-1" d="M258.46,118.3c-77.42-1.21-140.02,61.86-140.01,137.41,.01,75.95,61.66,137.92,137.15,138.15,76.06,.24,138.46-61.9,138.34-137.75,.15-75.3-61.06-136.65-135.47-137.82Zm-2.26,236.18c-54.39,0-98.37-43.95-98.4-98.35-.03-54.78,43.93-98.46,99.07-98.44,53.86,.02,97.74,44.22,97.72,98.41-.02,54.39-44,98.36-98.38,98.37Z"/></svg>