<svg id="Layer_1" xmlns="http://www.w3.org/2000/svg" viewBox="0 0 1031.94 683.33">
    <defs>
        <style>
            .cls-1{fill:#000;}
            .cls-2{fill:none;stroke:#fff;stroke-miterlimit:10;stroke-width:10px;}
        </style>
    </defs>
    <g>
        <path class="cls-1" d="M220.82,404.24c-14.05,0-30.8-4.91-30.8-28.32,0-15.87,7.75-38.25,23.68-68.42,5.01-9.01,17.89-30.43,38.32-63.71,30.01-49.25,45.23-88.14,45.23-115.58,0-21.36-10.87-31.75-33.24-31.75-26.34,0-60.8,16-102.43,47.54-36.63,27.8-64.63,55.79-83.22,83.19-12.17,17.94-18.35,32.9-18.35,44.48,0,8.91,4.59,12.88,14.87,12.88,3.61,0,8.95-1.28,15.85-3.79,7.8-2.83,12.85-4.15,15.92-4.15,7.64,0,8.46,4.18,8.46,5.98,0,6.2-6.17,11.21-19.4,15.75-10.35,3.45-18.29,5.12-24.3,5.12-19.82,0-30.3-10.99-30.3-31.79,0-26.11,14.28-55.51,42.45-87.37,25.24-28.56,56.38-53.81,92.56-75.06,36.38-21.36,67.78-32.18,93.35-32.18,39.54,0,59.59,17.38,59.59,51.65,0,15.26-4.44,32.55-13.19,51.4-9.26,20.5-22.33,45.14-38.85,73.23-14.09,23.58-28.45,47.47-42.71,71.02-11.89,20.56-17.93,37.09-17.93,49.08s5.82,13.38,10.9,13.38c10.25,0,25.54-7,45.45-20.81,49.49-34.09,102.7-85.48,158.17-152.74,3.05-4.38,8.12-10.47,15.07-18.08l.13-.14,.15-.12c4.84-4.1,10.33-6.17,16.33-6.17,5.3,0,8.46,2.79,8.46,7.47,0,2.58-1.23,5.9-3.88,10.44-31.68,55.52-47.75,101.61-47.75,136.99,0,8.34,0,33.73,16.36,33.73,10.01,0,24.15-9.54,42-28.35,14.97-15.94,26.35-30.78,33.81-44.08,21.81-39.72,32.88-70.13,32.88-90.37,0-3.28-1.19-8.29-3.55-14.88-2.62-7.34-3.9-13.03-3.9-17.39,0-16.43,7.57-19.88,13.92-19.88,5.45,0,9.78,4.88,13.26,14.92,2.42,6.92,3.64,13.26,3.64,18.85,0,3.14-.15,6.69-.44,10.83,1.34,2.49,3.56,4.19,6.76,5.17,5.69,1.76,8.57,4.56,8.57,8.33,0,1.64-.61,6.97-8.46,6.97-3.39,0-7-.65-10.78-1.94-7.38,30.39-19.24,59.91-35.26,87.81-19.36,33.05-41.24,57.44-65.03,72.52-10.06,6.24-20.28,9.4-30.4,9.4-25.05,0-37.75-15.54-37.75-46.19,0-17.46,6.18-46.85,18.39-87.48-40.03,40.53-66.23,66.34-77.92,76.81-42.14,38.1-74.11,58.95-97.71,63.75-5.77,1.35-11.51,2.05-16.98,2.05Z"/>
        <g>
            <path class="cls-1" d="M720.19,257.3c-9.62,0-14.91-5.3-14.91-14.91,0-4.78,1.88-9.08,5.59-12.79,3.71-3.71,8.18-5.59,13.29-5.59,9.62,0,14.91,5.3,14.91,14.91,0,4.78-1.88,9.08-5.6,12.79-3.71,3.71-8.18,5.59-13.29,5.59Z"/>
            <path class="cls-1" d="M930.15,402.75c-15.91,0-30.77-6.02-44.18-17.88-7.8-6.9-13.42-14.55-16.74-22.79-7.01,3.19-14.87,5.69-23.44,7.47-2.39,9.74-7.72,17.7-15.87,23.69-8.6,6.32-18.47,9.52-29.33,9.52-15.91,0-30.77-6.02-44.18-17.88-5.68-5.03-10.22-10.47-13.54-16.23-20.27,20.94-37.95,31.13-53.96,31.13-19.82,0-30.3-11.17-30.3-32.29,0-2.12,.15-4.44,.46-6.94-5.15,4.46-10.89,8.79-17.15,12.92-17.95,11.86-34.71,17.87-49.8,17.87s-34.27-7.32-34.27-42.22c0-17.77,7.71-37.4,22.91-58.35,8.12-11.16,16.52-19.67,24.96-25.31,8.65-5.77,17.61-8.69,26.61-8.69,4.23,0,7.92,1.87,10.99,5.55,2.93,3.52,4.42,7.34,4.42,11.35,0,11.23-7.94,24.12-24.28,39.42-13.57,12.6-26.27,21.3-37.78,25.88-1.97,7.34-2.97,13.59-2.97,18.59,0,12,4.74,17.35,15.37,17.35s23.57-4.68,37.57-13.9c11.26-7.41,21.18-15.92,29.5-25.31,1.16-3.45,2.33-6.72,3.6-10,6.01-16.03,12.48-28.78,19.21-37.88,2.56-3.81,5.72-5.74,9.4-5.74s7.31,1.65,10.38,4.92c3.01,3.22,4.53,6.75,4.53,10.49,0,2.27-.81,4.6-2.49,7.12-16.13,25.15-24.32,46.32-24.32,62.87,0,6.92,1.13,14.87,9.91,14.87s18.98-5.09,30.27-15.13c3.72-3.26,7.71-7.2,11.89-11.75-.99-3.99-1.49-8.12-1.49-12.32,0-14.38,5.95-17.4,10.94-17.4,3.54,0,6.99,1.78,10.48,5.43,5.09-6.04,12.45-17.44,21.91-33.96,11.13-19.44,20.51-33.55,27.9-41.94,12.12-13.85,24.74-20.87,37.5-20.87,5.18,0,10.47,1.65,15.73,4.92,5.72,3.55,8.62,8.08,8.62,13.47,0,6.97-10.85,6.97-14.42,6.97-7,0-13.22,2.15-19.03,6.58-5.55,4.24-8.25,9.39-8.25,15.73,0,2.29,.44,4.79,1.31,7.42,4.35,11.05,8.52,21.9,12.4,32.24l.04,.11c3.87,11.62,6.05,22.08,6.51,31.15,6.36-1.27,12.41-3.33,18.04-6.15-.09-1.23-.13-2.47-.13-3.7,0-14.38,5.95-17.4,10.94-17.4,3.45,0,6.81,1.7,10.22,5.18,1.3-1.39,2.59-2.86,3.86-4.39,4.76-6.55,10.92-16.41,18.32-29.31,11.13-19.43,20.51-33.55,27.9-41.94,12.12-13.85,24.74-20.87,37.5-20.87,5.18,0,10.47,1.65,15.73,4.92,5.72,3.55,8.62,8.08,8.62,13.47,0,6.97-10.85,6.97-14.42,6.97-7,0-13.22,2.15-19.03,6.58-5.55,4.24-8.25,9.39-8.25,15.73,0,2.29,.44,4.79,1.31,7.42,4.35,11.05,8.52,21.9,12.4,32.24l.04,.11c3.87,11.62,6.05,22.08,6.51,31.15,17.22-3.43,31.97-12.71,43.89-27.61l.1-.13,.12-.12c1.02-1.02,2.6-2.37,4.6-2.37,2.89,0,5.98,1.83,5.98,6.97,0,1.79-.44,3.58-1.31,5.31l-.07,.14-.08,.13c-11.05,17.42-29.59,28.92-55.13,34.21-2.39,9.74-7.72,17.7-15.87,23.69-8.6,6.32-18.47,9.52-29.33,9.52Zm-43.32-45.16c8.46,16.98,20.57,25.26,36.87,25.26,9.95,0,17.01-3.57,21.46-10.88-23-.34-42.58-5.17-58.33-14.37Zm-129.54,0c8.46,16.98,20.56,25.26,36.85,25.26,9.95,0,17.01-3.57,21.46-10.88-22.99-.34-42.56-5.17-58.31-14.37Zm9.36-16.97c17.58,8.18,35.48,12.97,53.29,14.24v-1.78c0-6.96-2.8-20.38-8.33-39.89-3.46-11.38-5.67-20.3-6.67-26.88-14.09,21.92-26.74,39.88-37.66,53.47-.21,.28-.42,.56-.64,.84Zm130.27,.33c17.35,7.98,35.01,12.66,52.57,13.91v-1.78c0-6.96-2.8-20.38-8.33-39.89-3.46-11.38-5.67-20.3-6.67-26.88-12.08,18.79-23.1,34.68-32.82,47.32-.18,.51-.38,.98-.6,1.43l-.07,.14-.08,.13c-1.21,1.91-2.55,3.79-4,5.62Zm-273.03-64.29c-1.36,0-6.77,1.55-19.3,21.43-5.72,8.92-9.92,16.49-12.56,22.62,6.24-3.65,12.71-8.81,19.32-15.42,10.3-9.98,15.5-18.61,15.5-25.68,0-2.32-.64-2.96-2.96-2.96Z"/>
        </g>
    </g>
        <polyline class="cls-2" points="678.33 134.26 678.33 5 5 5 5 678.33 678.33 678.33 678.33 543.95"/>
    <g>
        <path class="cls-1" d="M280.42,498.55v-56.82h-20.39v-2.9h43.9v2.9h-20.35v56.82h-3.16Z"/>
        <path class="cls-1" d="M310.35,453.16h15.51c4.34,0,7.75,.98,10.24,2.94,2.49,1.96,3.74,4.7,3.74,8.22,0,2.29-.45,4.16-1.36,5.62-.91,1.46-2,2.59-3.27,3.38s-2.42,1.32-3.45,1.58v.09c1.79,.23,3.5,.78,5.14,1.63,1.64,.85,2.97,2.07,4,3.65,1.03,1.58,1.54,3.59,1.54,6.02s-.59,4.62-1.78,6.48c-1.19,1.86-2.94,3.29-5.27,4.29s-5.16,1.49-8.5,1.49h-16.52v-45.4Zm3.08,20.74h12.48c1.9,0,3.68-.34,5.34-1.01,1.65-.67,2.99-1.7,4-3.08s1.52-3.13,1.52-5.27c0-2.84-1-5-2.99-6.46-1.99-1.46-4.75-2.2-8.26-2.2h-12.08v18.02Zm0,21.97h13.27c3.98,0,7.08-.84,9.29-2.53,2.21-1.68,3.32-4.04,3.32-7.05,0-3.34-1.22-5.79-3.65-7.36-2.43-1.57-5.38-2.35-8.83-2.35h-13.4v19.29Z"/>
        <path class="cls-1" d="M382.42,454.7c2.78,1.52,5.01,3.76,6.68,6.72s2.5,6.61,2.5,10.94v7.16c0,4.37-.83,8.02-2.5,10.96-1.67,2.95-3.9,5.15-6.68,6.61-2.78,1.46-5.89,2.2-9.32,2.2s-6.53-.74-9.32-2.22c-2.78-1.48-4.99-3.69-6.61-6.63-1.63-2.95-2.44-6.57-2.44-10.88v-7.21c0-4.37,.82-8.03,2.46-11.01,1.64-2.97,3.85-5.21,6.61-6.7s5.87-2.24,9.29-2.24,6.53,.76,9.32,2.29Zm-17.03,2.53c-2.3,1.33-4.12,3.3-5.47,5.91-1.35,2.61-2.02,5.84-2.02,9.71v6.24c0,3.84,.67,7.05,2,9.62,1.33,2.58,3.14,4.52,5.43,5.82,2.29,1.3,4.91,1.96,7.87,1.96s5.5-.64,7.8-1.93c2.3-1.29,4.12-3.22,5.45-5.8,1.33-2.58,2-5.8,2-9.67v-6.24c0-3.81-.67-7.02-2-9.65-1.33-2.62-3.16-4.61-5.47-5.96-2.31-1.35-4.92-2.02-7.82-2.02s-5.46,.67-7.76,2Z"/>
        <path class="cls-1" d="M412.69,496.9c-2.7-1.6-4.77-3.93-6.22-7.01s-2.18-6.8-2.18-11.16v-5.1c0-4.69,.74-8.61,2.22-11.75,1.48-3.15,3.54-5.52,6.2-7.1,2.65-1.58,5.69-2.37,9.12-2.37s6.54,.79,9.16,2.37c2.62,1.58,4.68,3.96,6.17,7.12s2.24,7.08,2.24,11.73v2.37h-31.99v2.64c0,5.74,1.35,10.14,4.04,13.21,2.7,3.06,6.33,4.59,10.9,4.59,2.9,0,5.3-.48,7.19-1.43s3.33-2.13,4.33-3.54c1-1.41,1.57-2.77,1.71-4.09h3.21c-.12,1.23-.53,2.54-1.23,3.93s-1.72,2.69-3.05,3.89c-1.33,1.2-3.01,2.18-5.03,2.94s-4.39,1.14-7.12,1.14c-3.75,0-6.97-.8-9.67-2.4Zm23.6-23.58v-.26c0-3.78-.6-7-1.8-9.67-1.2-2.67-2.88-4.69-5.03-6.06s-4.68-2.07-7.58-2.07-5.43,.69-7.6,2.07c-2.17,1.38-3.85,3.4-5.05,6.06-1.2,2.67-1.8,5.89-1.8,9.67v.26h28.87Zm-22.9-30.08c-.59-.57-.88-1.28-.88-2.13s.29-1.52,.88-2.09c.59-.57,1.27-.86,2.07-.86,.85,0,1.56,.29,2.13,.86,.57,.57,.86,1.27,.86,2.09s-.29,1.56-.86,2.13c-.57,.57-1.28,.86-2.13,.86-.79,0-1.48-.29-2.07-.86Zm12.57,0c-.59-.57-.88-1.28-.88-2.13s.29-1.52,.88-2.09c.59-.57,1.29-.86,2.11-.86s1.52,.29,2.09,.86c.57,.57,.86,1.27,.86,2.09s-.29,1.56-.86,2.13c-.57,.57-1.27,.86-2.09,.86s-1.52-.29-2.11-.86Z"/><path class="cls-1" d="M504.23,455.88h-26.24v42.67h-3.12v-45.4h32.48v45.4h-3.12v-42.67Z"/>
        <path class="cls-1" d="M535.32,497.67c-2.07-1.11-3.66-2.44-4.79-3.98-1.13-1.54-1.93-2.91-2.39-4.11h-.18v23.51h-3.12v-59.94h3.08v9.18h.18c.2-.7,.64-1.6,1.3-2.7,.66-1.1,1.58-2.2,2.77-3.32s2.69-2.05,4.5-2.81c1.82-.76,4-1.14,6.55-1.14,3.31,0,6.25,.78,8.83,2.33,2.58,1.55,4.61,3.74,6.11,6.57s2.24,6.2,2.24,10.13v8.83c0,4.28-.81,7.83-2.42,10.66-1.61,2.83-3.74,4.94-6.37,6.35s-5.46,2.11-8.48,2.11-5.74-.56-7.8-1.67Zm14.61-3.03c2.17-1.2,3.93-3.05,5.27-5.56,1.35-2.5,2.02-5.72,2.02-9.65v-7.34c0-3.6-.64-6.67-1.91-9.18s-2.99-4.42-5.14-5.71-4.56-1.93-7.23-1.93c-3.22,0-5.96,.78-8.2,2.33s-3.93,3.59-5.08,6.11-1.71,5.23-1.71,8.13v8.04c0,3.11,.62,5.91,1.85,8.42,1.23,2.51,2.97,4.49,5.23,5.96,2.26,1.46,4.89,2.2,7.91,2.2,2.49,0,4.82-.6,6.99-1.8Z"/>
        <path class="cls-1" d="M600.69,454.7c2.78,1.52,5.01,3.76,6.68,6.72s2.5,6.61,2.5,10.94v7.16c0,4.37-.83,8.02-2.5,10.96-1.67,2.95-3.9,5.15-6.68,6.61-2.78,1.46-5.89,2.2-9.32,2.2s-6.53-.74-9.32-2.22c-2.78-1.48-4.99-3.69-6.61-6.63-1.63-2.95-2.44-6.57-2.44-10.88v-7.21c0-4.37,.82-8.03,2.46-11.01,1.64-2.97,3.84-5.21,6.61-6.7s5.87-2.24,9.29-2.24,6.53,.76,9.32,2.29Zm-17.03,2.53c-2.3,1.33-4.12,3.3-5.47,5.91-1.35,2.61-2.02,5.84-2.02,9.71v6.24c0,3.84,.67,7.05,2,9.62s3.14,4.52,5.43,5.82c2.29,1.3,4.91,1.96,7.87,1.96s5.5-.64,7.8-1.93,4.12-3.22,5.45-5.8,2-5.8,2-9.67v-6.24c0-3.81-.67-7.02-2-9.65s-3.16-4.61-5.47-5.96c-2.31-1.35-4.92-2.02-7.82-2.02s-5.46,.67-7.76,2Z"/>
        <path class="cls-1" d="M622.49,472.01c0-4.22,.78-7.8,2.33-10.74,1.55-2.95,3.66-5.16,6.33-6.64,2.67-1.48,5.71-2.22,9.14-2.22,3.66,0,6.72,.7,9.16,2.09s4.31,3.14,5.58,5.25c1.27,2.11,1.97,4.25,2.09,6.42h-3.08c-.23-1.79-.89-3.51-1.96-5.16s-2.58-3.02-4.53-4.09c-1.95-1.07-4.37-1.6-7.27-1.6-4.34,0-7.87,1.48-10.61,4.44s-4.11,7.22-4.11,12.79v6.5c0,5.65,1.36,9.96,4.09,12.92s6.39,4.44,10.99,4.44c3.02,0,5.46-.5,7.34-1.52,1.88-1.01,3.3-2.29,4.26-3.84s1.6-3.13,1.89-4.75h3.03c-.18,1.96-.86,3.95-2.04,5.95-1.19,2.01-2.97,3.68-5.34,5.03s-5.49,2.02-9.36,2.02c-3.6,0-6.75-.75-9.43-2.24-2.68-1.49-4.77-3.73-6.26-6.7s-2.24-6.61-2.24-10.92v-7.43Z"/>
        <path class="cls-1" d="M684.32,455.84v42.71h-3.12v-42.71h-16.22v-2.68h35.55v2.68h-16.22Z"/>
        <path class="cls-1" d="M722.75,497.67c-2.07-1.11-3.66-2.44-4.79-3.98-1.13-1.54-1.93-2.91-2.39-4.11h-.18v23.51h-3.12v-59.94h3.08v9.18h.18c.21-.7,.64-1.6,1.3-2.7,.66-1.1,1.58-2.2,2.77-3.32,1.19-1.11,2.69-2.05,4.5-2.81s4-1.14,6.55-1.14c3.31,0,6.25,.78,8.83,2.33s4.61,3.74,6.11,6.57,2.24,6.2,2.24,10.13v8.83c0,4.28-.81,7.83-2.42,10.66s-3.74,4.94-6.37,6.35-5.46,2.11-8.48,2.11-5.74-.56-7.8-1.67Zm14.61-3.03c2.17-1.2,3.93-3.05,5.27-5.56,1.35-2.5,2.02-5.72,2.02-9.65v-7.34c0-3.6-.64-6.67-1.91-9.18-1.27-2.52-2.99-4.42-5.14-5.71-2.15-1.29-4.56-1.93-7.23-1.93-3.22,0-5.95,.78-8.2,2.33-2.24,1.55-3.93,3.59-5.08,6.11s-1.71,5.23-1.71,8.13v8.04c0,3.11,.62,5.91,1.85,8.42,1.23,2.51,2.97,4.49,5.23,5.96s4.89,2.2,7.91,2.2c2.49,0,4.82-.6,6.99-1.8Z"/>
        <path class="cls-1" d="M764.17,495.72c-2.75-2.42-4.13-5.72-4.13-9.91,0-3.72,1.3-6.75,3.89-9.1,2.59-2.34,6.44-3.52,11.54-3.52h14.15v-6.68c0-3.9-1.16-6.75-3.47-8.55-2.31-1.8-5.3-2.7-8.96-2.7-2.72,0-4.94,.42-6.64,1.25-1.7,.83-2.98,1.84-3.84,3.01-.87,1.17-1.37,2.31-1.52,3.43h-3.12c.12-1.35,.52-2.65,1.21-3.91,.69-1.26,1.67-2.39,2.94-3.38,1.28-1,2.84-1.79,4.7-2.39,1.86-.6,4.02-.9,6.48-.9,3.05,0,5.72,.5,8.02,1.52,2.3,1.01,4.09,2.52,5.38,4.53,1.29,2.01,1.93,4.53,1.93,7.58v32.56h-3.08v-7.56h-.22c-.32,.91-1.05,2.02-2.2,3.34s-2.72,2.48-4.75,3.49c-2.02,1.01-4.56,1.52-7.6,1.52-4.39,0-7.97-1.21-10.72-3.62Zm18.17-.92c2.15-1.1,3.9-2.64,5.25-4.61,1.35-1.98,2.02-4.3,2.02-6.97v-7.21h-14.15c-4.19,0-7.25,.92-9.18,2.75s-2.9,4.17-2.9,7.01c0,3.28,1.11,5.88,3.34,7.8,2.23,1.92,5.05,2.88,8.48,2.88,2.61,0,4.99-.55,7.14-1.65Z"/>
        <path class="cls-1" d="M839.75,476.1h-26.67v22.46h-3.12v-45.4h3.12v20.21h26.67v-20.21h3.12v45.4h-3.12v-22.46Z"/>
        <path class="cls-1" d="M857.9,472.01c0-4.22,.78-7.8,2.33-10.74,1.55-2.95,3.66-5.16,6.33-6.64,2.67-1.48,5.71-2.22,9.14-2.22,3.66,0,6.72,.7,9.16,2.09s4.31,3.14,5.58,5.25c1.27,2.11,1.97,4.25,2.09,6.42h-3.08c-.23-1.79-.89-3.51-1.96-5.16s-2.58-3.02-4.53-4.09c-1.95-1.07-4.37-1.6-7.27-1.6-4.34,0-7.87,1.48-10.61,4.44s-4.11,7.22-4.11,12.79v6.5c0,5.65,1.36,9.96,4.09,12.92s6.39,4.44,10.99,4.44c3.02,0,5.46-.5,7.34-1.52,1.88-1.01,3.3-2.29,4.26-3.84s1.6-3.13,1.89-4.75h3.03c-.18,1.96-.86,3.95-2.04,5.95-1.19,2.01-2.97,3.68-5.34,5.03s-5.49,2.02-9.36,2.02c-3.6,0-6.75-.75-9.43-2.24-2.68-1.49-4.77-3.73-6.26-6.7s-2.24-6.61-2.24-10.92v-7.43Z"/>
        <path class="cls-1" d="M919.74,455.84v42.71h-3.12v-42.71h-16.22v-2.68h35.55v2.68h-16.22Z"/>
        <path class="cls-1" d="M947.68,453.16h15.51c4.34,0,7.75,.98,10.24,2.94s3.74,4.7,3.74,8.22c0,2.29-.45,4.16-1.36,5.62s-2,2.59-3.27,3.38c-1.27,.79-2.42,1.32-3.45,1.58v.09c1.79,.23,3.5,.78,5.14,1.63s2.97,2.07,4,3.65,1.54,3.59,1.54,6.02-.59,4.62-1.78,6.48c-1.19,1.86-2.94,3.29-5.27,4.29-2.33,1-5.16,1.49-8.5,1.49h-16.52v-45.4Zm3.08,20.74h12.48c1.9,0,3.68-.34,5.34-1.01s2.99-1.7,4-3.08c1.01-1.38,1.52-3.13,1.52-5.27,0-2.84-1-5-2.99-6.46s-4.75-2.2-8.26-2.2h-12.08v18.02Zm0,21.97h13.27c3.98,0,7.08-.84,9.29-2.53s3.32-4.04,3.32-7.05c0-3.34-1.22-5.79-3.65-7.36s-5.38-2.35-8.83-2.35h-13.4v19.29Z"/>
        <path class="cls-1" d="M1019.75,454.7c2.78,1.52,5.01,3.76,6.68,6.72s2.5,6.61,2.5,10.94v7.16c0,4.37-.83,8.02-2.5,10.96-1.67,2.95-3.9,5.15-6.68,6.61s-5.89,2.2-9.32,2.2-6.53-.74-9.32-2.22c-2.78-1.48-4.99-3.69-6.61-6.63-1.62-2.95-2.44-6.57-2.44-10.88v-7.21c0-4.37,.82-8.03,2.46-11.01s3.84-5.21,6.61-6.7c2.77-1.49,5.87-2.24,9.29-2.24s6.53,.76,9.32,2.29Zm-17.03,2.53c-2.3,1.33-4.12,3.3-5.47,5.91s-2.02,5.84-2.02,9.71v6.24c0,3.84,.67,7.05,2,9.62s3.14,4.52,5.43,5.82c2.29,1.3,4.91,1.96,7.87,1.96s5.5-.64,7.8-1.93,4.12-3.22,5.45-5.8,2-5.8,2-9.67v-6.24c0-3.81-.67-7.02-2-9.65s-3.16-4.61-5.47-5.96-4.92-2.02-7.82-2.02-5.46,.67-7.76,2Z"/>
        </g>
</svg>