<?xml version="1.0" encoding="UTF-8"?><svg id="Layer_1" xmlns="http://www.w3.org/2000/svg" viewBox="0 0 1035.27 683.33"><defs><style>.cls-1,.cls-2{fill:#231f20;}.cls-3{letter-spacing:-.05em;}.cls-4{fill:none;stroke:#231f20;stroke-miterlimit:10;stroke-width:10px;}.cls-2{font-family:SFCompact-Ultralight, 'SF Compact';font-size:90px;font-variation-settings:'opsz' 19, 'wght' 59;font-weight:100;}.cls-5{letter-spacing:0em;}</style></defs><g><path class="cls-1" d="M220.82,404.24c-14.05,0-30.8-4.91-30.8-28.32,0-15.87,7.75-38.25,23.68-68.42,5.01-9.01,17.89-30.43,38.32-63.71,30.01-49.25,45.23-88.14,45.23-115.58,0-21.36-10.87-31.75-33.24-31.75-26.34,0-60.8,16-102.43,47.54-36.63,27.8-64.63,55.79-83.22,83.19-12.17,17.94-18.35,32.9-18.35,44.48,0,8.91,4.59,12.88,14.87,12.88,3.61,0,8.95-1.28,15.85-3.79,7.8-2.83,12.85-4.15,15.92-4.15,7.64,0,8.46,4.18,8.46,5.98,0,6.2-6.17,11.21-19.4,15.75-10.35,3.45-18.29,5.12-24.3,5.12-19.82,0-30.3-10.99-30.3-31.79,0-26.11,14.28-55.51,42.45-87.37,25.24-28.56,56.38-53.81,92.56-75.06,36.38-21.36,67.78-32.18,93.35-32.18,39.54,0,59.59,17.38,59.59,51.65,0,15.26-4.44,32.55-13.19,51.4-9.26,20.5-22.33,45.14-38.85,73.23-14.09,23.58-28.45,47.47-42.71,71.02-11.89,20.56-17.93,37.09-17.93,49.08s5.82,13.38,10.9,13.38c10.25,0,25.54-7,45.45-20.81,49.49-34.09,102.7-85.48,158.17-152.74,3.05-4.38,8.12-10.47,15.07-18.08l.13-.14,.15-.12c4.84-4.1,10.33-6.17,16.33-6.17,5.3,0,8.46,2.79,8.46,7.47,0,2.58-1.23,5.9-3.88,10.44-31.68,55.52-47.75,101.61-47.75,136.99,0,8.34,0,33.73,16.36,33.73,10.01,0,24.15-9.54,42-28.35,14.97-15.94,26.35-30.78,33.81-44.08,21.81-39.72,32.88-70.13,32.88-90.37,0-3.28-1.19-8.29-3.55-14.88-2.62-7.34-3.9-13.03-3.9-17.39,0-16.43,7.57-19.88,13.92-19.88,5.45,0,9.78,4.88,13.26,14.92,2.42,6.92,3.64,13.26,3.64,18.85,0,3.14-.15,6.69-.44,10.83,1.34,2.49,3.56,4.19,6.76,5.17,5.69,1.76,8.57,4.56,8.57,8.33,0,1.64-.61,6.97-8.46,6.97-3.39,0-7-.65-10.78-1.94-7.38,30.39-19.24,59.91-35.26,87.81-19.36,33.05-41.24,57.44-65.03,72.52-10.06,6.24-20.28,9.4-30.4,9.4-25.05,0-37.75-15.54-37.75-46.19,0-17.46,6.18-46.85,18.39-87.48-40.03,40.53-66.23,66.34-77.92,76.81-42.14,38.1-74.11,58.95-97.71,63.75-5.77,1.35-11.51,2.05-16.98,2.05Z"/><g><path class="cls-1" d="M720.19,257.3c-9.62,0-14.91-5.3-14.91-14.91,0-4.78,1.88-9.08,5.59-12.79,3.71-3.71,8.18-5.59,13.29-5.59,9.62,0,14.91,5.3,14.91,14.91,0,4.78-1.88,9.08-5.6,12.79-3.71,3.71-8.18,5.59-13.29,5.59Z"/><path class="cls-1" d="M930.15,402.75c-15.91,0-30.77-6.02-44.18-17.88-7.8-6.9-13.42-14.55-16.74-22.79-7.01,3.19-14.87,5.69-23.44,7.47-2.39,9.74-7.72,17.7-15.87,23.69-8.6,6.32-18.47,9.52-29.33,9.52-15.91,0-30.77-6.02-44.18-17.88-5.68-5.03-10.22-10.47-13.54-16.23-20.27,20.94-37.95,31.13-53.96,31.13-19.82,0-30.3-11.17-30.3-32.29,0-2.12,.15-4.44,.46-6.94-5.15,4.46-10.89,8.79-17.15,12.92-17.95,11.86-34.71,17.87-49.8,17.87s-34.27-7.32-34.27-42.22c0-17.77,7.71-37.4,22.91-58.35,8.12-11.16,16.52-19.67,24.96-25.31,8.65-5.77,17.61-8.69,26.61-8.69,4.23,0,7.92,1.87,10.99,5.55,2.93,3.52,4.42,7.34,4.42,11.35,0,11.23-7.94,24.12-24.28,39.42-13.57,12.6-26.27,21.3-37.78,25.88-1.97,7.34-2.97,13.59-2.97,18.59,0,12,4.74,17.35,15.37,17.35s23.57-4.68,37.57-13.9c11.26-7.41,21.18-15.92,29.5-25.31,1.16-3.45,2.33-6.72,3.6-10,6.01-16.03,12.48-28.78,19.21-37.88,2.56-3.81,5.72-5.74,9.4-5.74s7.31,1.65,10.38,4.92c3.01,3.22,4.53,6.75,4.53,10.49,0,2.27-.81,4.6-2.49,7.12-16.13,25.15-24.32,46.32-24.32,62.87,0,6.92,1.13,14.87,9.91,14.87s18.98-5.09,30.27-15.13c3.72-3.26,7.71-7.2,11.89-11.75-.99-3.99-1.49-8.12-1.49-12.32,0-14.38,5.95-17.4,10.94-17.4,3.54,0,6.99,1.78,10.48,5.43,5.09-6.04,12.45-17.44,21.91-33.96,11.13-19.44,20.51-33.55,27.9-41.94,12.12-13.85,24.74-20.87,37.5-20.87,5.18,0,10.47,1.65,15.73,4.92,5.72,3.55,8.62,8.08,8.62,13.47,0,6.97-10.85,6.97-14.42,6.97-7,0-13.22,2.15-19.03,6.58-5.55,4.24-8.25,9.39-8.25,15.73,0,2.29,.44,4.79,1.31,7.42,4.35,11.05,8.52,21.9,12.4,32.24l.04,.11c3.87,11.62,6.05,22.08,6.51,31.15,6.36-1.27,12.41-3.33,18.04-6.15-.09-1.23-.13-2.47-.13-3.7,0-14.38,5.95-17.4,10.94-17.4,3.45,0,6.81,1.7,10.22,5.18,1.3-1.39,2.59-2.86,3.86-4.39,4.76-6.55,10.92-16.41,18.32-29.31,11.13-19.43,20.51-33.55,27.9-41.94,12.12-13.85,24.74-20.87,37.5-20.87,5.18,0,10.47,1.65,15.73,4.92,5.72,3.55,8.62,8.08,8.62,13.47,0,6.97-10.85,6.97-14.42,6.97-7,0-13.22,2.15-19.03,6.58-5.55,4.24-8.25,9.39-8.25,15.73,0,2.29,.44,4.79,1.31,7.42,4.35,11.05,8.52,21.9,12.4,32.24l.04,.11c3.87,11.62,6.05,22.08,6.51,31.15,17.22-3.43,31.97-12.71,43.89-27.61l.1-.13,.12-.12c1.02-1.02,2.6-2.37,4.6-2.37,2.89,0,5.98,1.83,5.98,6.97,0,1.79-.44,3.58-1.31,5.31l-.07,.14-.08,.13c-11.05,17.42-29.59,28.92-55.13,34.21-2.39,9.74-7.72,17.7-15.87,23.69-8.6,6.32-18.47,9.52-29.33,9.52Zm-43.32-45.16c8.46,16.98,20.57,25.26,36.87,25.26,9.95,0,17.01-3.57,21.46-10.88-23-.34-42.58-5.17-58.33-14.37Zm-129.54,0c8.46,16.98,20.56,25.26,36.85,25.26,9.95,0,17.01-3.57,21.46-10.88-22.99-.34-42.56-5.17-58.31-14.37Zm9.36-16.97c17.58,8.18,35.48,12.97,53.29,14.24v-1.78c0-6.96-2.8-20.38-8.33-39.89-3.46-11.38-5.67-20.3-6.67-26.88-14.09,21.92-26.74,39.88-37.66,53.47-.21,.28-.42,.56-.64,.84Zm130.27,.33c17.35,7.98,35.01,12.66,52.57,13.91v-1.78c0-6.96-2.8-20.38-8.33-39.89-3.46-11.38-5.67-20.3-6.67-26.88-12.08,18.79-23.1,34.68-32.82,47.32-.18,.51-.38,.98-.6,1.43l-.07,.14-.08,.13c-1.21,1.91-2.55,3.79-4,5.62Zm-273.03-64.29c-1.36,0-6.77,1.55-19.3,21.43-5.72,8.92-9.92,16.49-12.56,22.62,6.24-3.65,12.71-8.81,19.32-15.42,10.3-9.98,15.5-18.61,15.5-25.68,0-2.32-.64-2.96-2.96-2.96Z"/></g></g><polyline class="cls-4" points="678.33 134.26 678.33 5 5 5 5 678.33 678.33 678.33 678.33 543.95"/><text class="cls-2" transform="translate(258.09 498.55)"><tspan class="cls-3" x="0" y="0">Т</tspan><tspan x="43.51" y="0">воё про</tspan><tspan class="cls-5" x="358.11" y="0">с</tspan><tspan x="403.9" y="0">тран</tspan><tspan class="cls-5" x="593.53" y="0">с</tspan><tspan x="639.32" y="0">тво</tspan></text></svg>