<svg id="Layer_1" xmlns="http://www.w3.org/2000/svg" viewBox="0 0 512 510.53" height='20px'><defs><style>.cls-1{fill:#fff;}.cls-2{fill:#939090;}</style></defs><path class="cls-2" d="M115.24,.92c.19-.3,.21-.6,.06-.92h6.98c-.1,.31-.07,.61,.08,.89-2.37,0-4.74,.02-7.12,.03Z"/><g><path class="cls-1" d="M209.46,392.18c-55.39,4.84-109.48,10.94-160.99,36.75,5.9,3.07,10.17,5.6,14.69,7.59,28.94,12.76,59.61,19.17,90.66,23.89,41.53,6.31,83.38,8.08,125.3,6.69,54.45-1.8,108.36-7.51,159.96-26.59,7.84-2.9,15.31-6.8,22.87-11.26-49.84-26.17-104.05-32.21-159.33-37.08,1.17-1.88,1.95-3.33,2.91-4.66,7.73-10.63,15.35-21.34,23.37-31.75,1.44-1.87,4.67-3.68,6.87-3.46,45.98,4.62,91.29,12.43,133.53,32.23,10.35,4.85,20.35,11.3,28.99,18.77,18.16,15.69,18.11,34.71,.79,51.32-14.46,13.87-32.46,21.73-50.97,28.33-34.97,12.45-71.24,18.9-108.03,23.04-38.85,4.37-77.8,5.48-116.8,3.8-57.79-2.49-114.97-9.2-169.2-30.88-12.67-5.06-24.38-12.72-36.05-19.96-4.58-2.84-8.35-7.41-11.61-11.84-8.71-11.85-8.53-24.7,.37-36.41,11.49-15.11,27.89-23.28,44.83-30.32,32.47-13.5,66.61-20.58,101.27-25.47,7.71-1.09,15.45-2.02,23.2-2.65,1.88-.15,4.7,.56,5.7,1.91,9.19,12.25,18.07,24.73,27.67,38.02Z"/><path class="cls-1" d="M388.56,115.61C376.98,36.12,297.57-15.72,220.36,5.9c-57.93,16.22-97.61,67.67-98.38,127.6-.36,27.67,7.19,53.65,17.32,78.99,21.41,53.55,52.59,101.41,86.58,147.58,9.47,12.86,19.51,25.3,30.56,39.56,18.18-24.86,35.81-47.84,52.21-71.66,27.46-39.86,51.93-81.45,68.33-127.28,9.84-27.5,15.88-55.57,11.58-85.08Zm-132.05,77.5c-36.98,.16-66.32-28.95-66.33-65.79,0-36.68,28.9-65.7,65.57-65.83,36.61-.14,65.86,28.84,66,65.41,.14,36.65-28.84,66.06-65.24,66.21Z"/><path class="cls-1" d="M256.01,159.7c-18.28,.02-32.66-14.33-32.57-32.54,.08-18.07,14.89-32.77,32.78-32.54,17.88,.23,32.07,14.52,32.2,32.42,.13,18.28-14.12,32.64-32.41,32.66Z"/></g></svg>