<svg id="Layer_1" xmlns="http://www.w3.org/2000/svg" viewBox="0 0 510.85 511.18" height='20px' width='auto'><defs><style>.cls-1{fill:#fff;}.cls-2{fill:#939090;}</style></defs><path class="cls-2" d="M114.66,.92c.19-.3,.21-.6,.06-.92h6.98c-.1,.31-.07,.61,.08,.89-2.37,0-4.74,.02-7.12,.03Z"/><g><path class="cls-1" d="M121.79,1.21c5.26,.84,9.09,3.78,11.91,8.16,20.65,32.07,41.33,64.13,61.91,96.25,5.32,8.3,4.45,16.53-2.45,23.51-12.03,12.19-23.99,24.46-36.39,36.26-6.66,6.33-8.27,13.38-6.7,22.07,6.42,35.66,22.54,66.67,45.43,94.3,22.96,27.71,50.34,49.96,83.23,65.09,14.96,6.88,30.53,11.77,46.76,14.53,7.75,1.32,14.18-.76,19.8-6.59,11.77-12.21,23.9-24.07,35.91-36.04,7.82-7.79,15.83-8.75,25.06-2.83,31.54,20.24,63.04,40.53,94.52,60.85,9.5,6.13,11.93,14.67,7.12,24.9-15.26,32.5-30.57,64.98-45.89,97.46-4.56,9.67-10.98,13.08-21.66,11.77-29.5-3.63-58.44-9.82-86.68-19.11-64.67-21.28-122.12-55.22-173.46-99.65-49.78-43.08-91.71-92.71-123.88-150.33C29.13,193.1,10.82,141.25,2.21,86.05c-.62-3.99-.45-8.13-2.21-11.91v-12.97c1.01-5.86,4.49-9.72,9.73-12.25,29.1-14.08,58.36-27.83,87.71-41.4,5.8-2.68,11.1-6.84,17.98-6.69,2.12,.18,4.29-.41,6.37,.38Z"/><path class="cls-1" d="M274.36,.32c6.28,2.03,12.89,1.8,19.32,2.78,44.53,6.82,84.54,24.08,119.72,52.1,49.66,39.55,80.68,90.69,93.06,152.97,3.11,15.64,4.64,31.52,4.35,47.52-.18,9.78-7.5,17.47-17.1,17.85-9.15,.36-17.19-6.75-18.05-16.34-.96-10.74-.93-21.53-2.46-32.27-5.56-38.92-20.36-73.89-44.64-104.71-32.82-41.67-75.39-68.11-127.11-79.72-14.27-3.2-28.82-4.43-43.47-4.78-11.26-.28-17.29-4.67-19.64-13.33-2.38-8.78,1.7-16.82,10.68-20.99,.57-.26,1.32-.2,1.39-1.08h23.94Z"/><path class="cls-1" d="M259.58,88.24c78.55,1.48,147.42,60.7,160.53,137.97,1.56,9.18,2.63,18.39,2.78,27.69,.17,11.19-7.18,19.39-17.44,19.64-10.07,.24-18.03-7.87-18.16-19-.36-30.8-10.13-58.29-29.6-82.02-22.3-27.17-51.04-43.2-86.07-47.7-4.64-.6-9.25-.83-13.9-.92-12.03-.23-20.27-7.66-20.12-18.09,.15-10.58,8.5-17.73,20.49-17.57,.5,0,1,0,1.5,0Z"/></g></svg>