<?xml version="1.0" encoding="UTF-8"?><svg id="Layer_1" xmlns="http://www.w3.org/2000/svg" viewBox="0 0 512 431.29"><defs><style>.cls-1{fill:#fff;}</style></defs><path class="cls-1" d="M501.19,3.87c-8.72-5.95-17.67-4.13-26.75-.59-113.11,44.12-226.25,88.17-339.38,132.25-40.33,15.71-80.64,31.46-120.99,47.14-7.46,2.9-13.4,7.01-14.01,15.81-.67,9.57,4.24,15.73,15.15,18.96,36.47,10.77,72.94,21.57,109.48,32.12,4.69,1.35,7.06,3.56,8.53,8.31,13.49,43.5,27.27,86.92,40.97,130.35,6.47,20.51,23.29,24.72,38.33,9.52,18.29-18.49,36.59-36.97,54.66-55.68,3.19-3.3,5.2-3.56,8.9-.78,19.16,14.36,38.53,28.42,57.83,42.59,18.75,13.76,37.43,27.62,56.26,41.27,17.4,12.61,37.2,5.08,42.08-15.88,1.13-4.88,2.04-9.81,3.07-14.71,22.7-108.53,45.41-217.06,68.1-325.59,3.07-14.7,6.03-29.42,8.57-41.81,.26-11.36-3.51-18.32-10.8-23.29Zm-81.93,83.64c-7.84,6.97-15.69,13.92-23.55,20.86-60.98,53.9-121.72,108.07-183.19,161.42-10.56,9.16-14.55,19.2-15.5,32.27-1.31,17.93-3.75,35.78-5.7,53.66-.02,.23-.04,.46-.12,.67-.79,2,.18,5.41-2.59,5.72-2.85,.32-2.92-3.04-3.57-5.03-2.62-8-5.02-16.08-7.52-24.12-8.15-26.31-16.32-52.61-24.45-78.93-.73-2.37-1.16-4.84-1.33-5.55-.35-8.36,4.3-11.36,9.04-14.3,33.5-20.77,67.01-41.55,100.51-62.33,48.03-29.78,96.05-59.56,144.08-89.34,2.32-1.44,4.66-2.86,7.01-4.26,2.94-1.76,6.02-2.79,8.59,.36,2.81,3.45,1.12,6.37-1.71,8.89Z"/></svg>