<?xml version="1.0" encoding="UTF-8"?><svg id="Layer_1" xmlns="http://www.w3.org/2000/svg" viewBox="0 0 479.05 501.96"><path d="M156.32,313.31c-.48-1.15-1.37-3.38-2.33-5.58-24.62-56.52-49.34-112.99-73.84-169.57-10.68-24.66,2.37-51.01,27.93-57.17,18.96-4.57,38.5,4.96,46.76,23.34,9.69,21.55,18.94,43.28,28.4,64.93,.99,2.26,2.05,4.49,3.58,7.83,8.46-11.68,19.14-18.92,33.22-19.76,13.94-.83,25.31,4.83,34.66,14.95,20.83-30.43,56.15-25.54,72.3-1.6,1.05-1.15,2.1-2.18,3-3.32,20.06-25.42,57.53-20.82,70.7,8.91,15.86,35.79,31.37,71.74,47.03,107.62,8.01,18.35,16.09,36.68,23.99,55.08,19.02,44.29-.05,92.78-44.19,112.16-32.96,14.47-65.94,28.89-99.04,43.05-31.07,13.29-60.38,9.46-87.15-10.92-42.27-32.19-84.28-64.71-126.28-97.25-13.68-10.6-19.33-24.75-15.61-41.78,3.53-16.14,13.73-27.11,29.81-30.6,8.44-1.84,17.61-.32,27.07-.32Zm307,56.53c-1.56-5.78-3.28-15.34-6.73-24.22-5.93-15.3-12.93-30.18-19.49-45.23-16.71-38.36-33.49-76.69-50.07-115.1-3.8-8.8-9.29-15.48-19.05-17.4-9.6-1.89-17.92,.79-24.18,8.47-6.42,7.89-7.27,16.79-3.33,26.01,7.17,16.75,14.61,33.39,21.81,50.12,2.13,4.95,1.6,9.57-3.99,11.79-5.18,2.06-8.6-.6-10.69-5.34-.36-.82-.7-1.66-1.06-2.48-10.72-24.53-21.31-49.12-32.2-73.57-6.04-13.58-20.18-19.03-33.09-13.24-12.46,5.58-17.64,19.63-12.04,33.02,3.47,8.3,7.17,16.51,10.76,24.76,4.67,10.73,9.28,21.48,14.01,32.18,2.2,4.98,2.05,9.34-3.2,12.12-4.49,2.37-8.85,.02-11.63-5.89-.58-1.22-1.04-2.49-1.58-3.73-10.5-23.89-20.88-47.83-31.54-71.64-6.64-14.84-20.25-20.6-33.56-14.68-13.3,5.92-17.95,19.9-11.49,34.77,8.78,20.22,17.65,40.4,26.42,60.63,2.87,6.62,1.68,11.17-3.54,12.99-6.12,2.13-9.08-1.47-11.27-6.56-6.59-15.29-13.32-30.52-19.98-45.77-17.55-40.2-34.93-80.47-52.71-120.57-7.82-17.62-30.65-20.31-42.06-5.28-6.53,8.6-6.25,17.69-2.01,27.36,32.55,74.39,64.95,148.85,97.41,223.29,3.58,8.22,2.84,13.08-2.33,15.13-5.29,2.1-9.52-.18-12.39-8.88-4.01-12.15-11.65-20.71-21.94-27.93-12.97-9.11-28.07-8.33-36.74,2.95-8.87,11.56-6.35,26.36,6.32,36.12,41.89,32.31,83.7,64.72,125.78,96.78,21.02,16.01,44.37,19.26,68.78,8.96,34.19-14.43,68.29-29.12,102.06-44.5,26.03-11.85,38.47-33.37,40.55-65.42Z"/><path d="M59.73,128.71c.06,7.79,5.52,20.98,15.98,32.14,.92,.99,1.92,1.9,2.88,2.85,3.58,3.51,4.51,7.47,.86,11.27-3.63,3.79-7.71,3.07-11.36-.29-12.17-11.21-19.94-24.96-22.62-41.27-6.54-39.77,19.43-77.16,58.19-84.18,40.31-7.3,77.84,18.53,85.44,58.9,.66,3.52,.88,7.16,.89,10.74,.01,4.51-2.53,7.24-7.03,7.45-4.48,.21-7.14-2.27-7.85-6.7-.75-4.66-.99-9.44-2.2-13.97-7.57-28.27-34.4-45.7-64.05-41.82-27.89,3.65-49.25,28.55-49.13,64.88Z"/><path d="M24.01,127.03c.1,12.26,8.69,33.02,25.15,50.59,1.45,1.55,3.02,2.99,4.54,4.48,5.64,5.53,7.1,11.75,1.36,17.75-5.72,5.97-12.14,4.82-17.87-.46C18.03,181.74,5.8,160.1,1.58,134.43-8.7,71.83,32.16,12.99,93.18,1.94c63.44-11.49,122.51,29.17,134.48,92.7,1.04,5.53,1.39,11.27,1.4,16.91,.02,7.11-3.99,11.39-11.07,11.72-7.05,.33-11.24-3.58-12.36-10.55-1.18-7.33-1.56-14.86-3.46-21.98-11.91-44.5-54.14-71.93-100.81-65.82C57.45,30.66,23.84,69.85,24.01,127.03Z"/></svg>