<?xml version="1.0" encoding="UTF-8"?><svg id="Layer_2" xmlns="http://www.w3.org/2000/svg" viewBox="0 0 512 511.81"><defs><style>.cls-1{fill:#fff;}.cls-2{fill:#849dc0;}</style></defs><path class="cls-2" d="M237.85,.86c.08-.28,.13-.57,.16-.86h11c-3.63,1.4-7.39,1.14-11.15,.86Z"/><path class="cls-2" d="M273.99,0c.02,.29,.08,.58,.16,.86-3.76,.28-7.52,.54-11.15-.86h11Z"/><path class="cls-2" d="M.1,237.91c.26-.18,.55-.23,.86-.16,.31,3.76,.5,7.52-.86,11.15v-11Z"/><path class="cls-2" d="M511.05,237.75c.31-.08,.6-.02,.86,.16v11c-1.36-3.64-1.17-7.39-.86-11.16Z"/><path class="cls-2" d="M.96,274.06l-.45,.02-.41-.18v-11c1.36,3.64,1.17,7.39,.86,11.15Z"/><path class="cls-2" d="M511.9,273.9l-.41,.18s-.45-.02-.45-.02c-.31-3.76-.5-7.52,.86-11.16v11Z"/><path class="cls-2" d="M238.01,511.81c-.02-.29-.08-.58-.16-.86,3.76-.28,7.52-.54,11.15,.86h-11Z"/><path class="cls-2" d="M274.15,510.95c-.08,.28-.13,.57-.16,.86h-11c3.63-1.4,7.39-1.14,11.15-.86Z"/><path class="cls-1" d="M298.65,184.47c0,13.96-.07,27.92,.03,41.87,.05,6.65,1.13,13.17,4.49,19.04,4.44,7.75,9.65,9,16.88,3.83,9-6.44,15.52-15.25,21.86-24.15,19.06-26.76,34.22-55.63,46.49-86.07,5.45-13.53,8.23-15.32,22.7-15.39,26.9-.13,53.81-.24,80.71-.39,3.82-.02,7.56,.19,11.25,1.42,6.9,2.29,9.76,6.95,8.52,14.01-1.46,8.34-4.92,15.93-9.03,23.26-16.59,29.53-37.89,55.74-58.15,82.69-4.56,6.07-8.85,12.38-12.79,18.87-5.54,9.12-4.6,18.03,2.64,25.83,6.55,7.06,13.49,13.77,20.36,20.54,17.35,17.09,35.3,33.63,48.77,54.2,2.35,3.59,4.64,7.3,6.39,11.21,4.84,10.8,1.45,18.62-9.69,23.02-4.78,1.89-9.76,2.55-14.88,2.63-21.06,.32-42.14,.33-63.18,1.17-18.93,.75-34-7-46.77-19.89-10.89-10.99-21.03-22.71-31.65-33.97-4.52-4.79-9.25-9.37-15.39-12.22-7.52-3.49-12.91-2.45-18.15,3.9-6.78,8.21-8.54,18.2-9.8,28.32-.63,5.03-.83,10.11-1.34,15.16-1.09,10.7-6.17,16.23-16.82,17.15-64.48,5.56-119.57-13.77-163.23-62.47-33.42-37.28-58.69-80.05-82.26-123.89-12.12-22.54-23.43-45.49-33.64-68.97-6.3-14.49-2.31-21.45,13.51-21.79,23.85-.51,47.71-.48,71.57-.28,10.14,.09,16.94,5.59,20.76,15.06,11.88,29.48,27.11,57.2,44.55,83.74,6,9.13,12.18,18.13,20.51,25.35,10.97,9.51,18.6,7.43,23.14-6.16,2.84-8.5,4.1-17.28,4.15-26.17,.1-19.76,1.3-39.54-2.49-59.2-2.52-13.06-10.16-20.42-22.67-23.57-7.32-1.85-7.68-3.47-2.3-9.15,7.88-8.33,18.36-10.45,29.02-11.5,24.55-2.42,49.14-2.82,73.59,1.09,17.46,2.79,23.3,9.63,23.71,27.74,.33,14.71,.07,29.43,.07,44.14h-1.41Z"/></svg>