<?xml version="1.0" encoding="UTF-8"?><svg id="Layer_3" xmlns="http://www.w3.org/2000/svg" viewBox="0 0 512 511.81"><defs><style>.cls-1{fill:#fff;}</style></defs><path class="cls-1" d="M508.15,205.47c-11.41-59.19-41.13-107.92-87.16-146.89-29.28-24.79-62.55-41.52-99.4-51.7-16.32-4.51-32.94-5.08-49.65-5.89C249.77-.08,227.43-.42,205.72,3.47c-46.32,8.31-87.19,28.94-122.21,60.45-28.37,25.53-50.65,55.69-65.23,91.13-7.86,19.12-15.28,38.4-16.06,59.53-.25,6.78-.29,13.68-1.88,20.38v7.39c1.23,9.37,1.23,18.73,0,28.1v7.39c1.12,1.26,.72,2.8,.73,4.23,.24,33.79,10.3,65.01,26.13,94.32,4.92,9.11,5.67,16.9,2.82,26.5-8.97,30.18-17.61,60.47-25.6,90.92-3.96,15.1-1.44,17.61,13.73,13.61,32.11-8.47,64.03-17.7,95.91-26.98,6.77-1.97,12.21-.9,18.15,2.52,19.77,11.35,41.08,18.89,63.18,24.28,12.71,3.1,25.86,1.98,38.64,4.28h7.4c8.87-1.2,17.75-1.2,26.62,0h7.4c1.5-1.27,3.3-.58,4.97-.73,11.48-1.03,23.14-.63,34.42-3.32,32.94-7.86,63.36-21.34,90.81-41.3,49.83-36.23,82.93-83.95,99.34-143.4,4.64-16.82,5.35-33.93,6.07-51.1,.93-22.14,1.28-44.5-2.91-66.2ZM238.34,483.12c-37.27-2.65-71.91-14.06-103.5-34.14-4.73-3.01-8.74-3.86-14.31-2.2-25.22,7.49-50.61,14.43-77.41,21.97,7.61-26.96,14.73-52.53,22.12-78.02,1.32-4.56,1.21-8.14-1.45-12.38C-22.15,241.22,55.13,63.18,213.72,32.7c128.46-24.69,252.64,66.7,267.55,196.91,16.35,142.77-99.42,263.72-242.93,253.51Z"/><path class="cls-1" d="M339.57,398.09c-23.56-1.35-46.19-8.83-67.32-20.41-62.01-34-109.15-81.95-136.28-148.1-4.87-11.88-7.61-24.4-8.85-37.25-2.52-26.17,9.31-45.71,28.63-61.47,8.93-7.29,22.06-6.24,30.53,1.95,13.82,13.36,27.39,26.98,40.79,40.77,7.4,7.61,7.25,17.91-.09,25.95-5.31,5.82-10.93,11.38-16.68,16.77-4.39,4.12-5.34,8.42-2.74,13.89,19.04,40.04,48.57,69.51,88.64,88.48,5.15,2.44,9.37,1.63,13.32-2.5,5.45-5.69,11.06-11.24,16.78-16.67,8.06-7.66,18.56-7.91,26.47-.22,13.6,13.23,27.05,26.63,40.25,40.26,8.33,8.6,9.57,21.51,2.48,30.48-13.98,17.69-31.85,28.38-55.94,28.09Z"/></svg>